<svg width="25" height="24" viewBox="0 0 25 24" fill="none" xmlns="http://www.w3.org/2000/svg">
<g id="noun-humidity-151847 1">
<g id="Group">
<path id="Vector" d="M12.5286 16.1645C12.2779 15.946 12.0727 15.4951 12.0727 15.1624V3.60468C12.0727 3.27214 11.8007 3.00012 11.4681 3.00012H10.6927C10.3601 3.00012 10.0881 3.27213 10.0881 3.60468L10.088 15.1621C10.088 15.4949 9.87463 15.9358 9.61401 16.1423C9.61401 16.1423 8.5 17.0245 8.5 17.8586C8.5 19.1463 9.63318 20.1903 11.031 20.1903C12.4285 20.1903 13.5616 19.1462 13.5616 17.8586C13.5616 17.0645 12.5286 16.1643 12.5286 16.1643L12.5286 16.1645Z" fill="white"/>
<path id="Vector_2" d="M11.8217 6.35846C11.8217 6.691 11.5497 6.96302 11.2171 6.96302H10.9524C10.6198 6.96302 10.3478 6.69101 10.3478 6.35846L10.3477 3.86726C10.3477 3.53471 10.6197 3.2627 10.9522 3.2627H11.217C11.5496 3.2627 11.8216 3.5347 11.8216 3.86726L11.8217 6.35846Z" fill="white"/>
<path id="Vector_3" d="M15.0918 13.6013C15.0918 14.1723 14.6294 14.6349 14.0581 14.6349C13.4867 14.6349 13.0244 14.1725 13.0244 13.6013L14.0441 11.7406L15.0918 13.6013Z" fill="white"/>
<path id="Vector_4" d="M16.2045 15.2926C16.2012 15.6241 15.9304 15.89 15.5986 15.8867C15.2677 15.8838 15.0016 15.6129 15.0049 15.2813L15.6069 14.2072L16.2045 15.2926Z" fill="white"/>
<path id="Vector_5" d="M15.9874 12.6409C15.9857 12.8385 15.824 12.9971 15.6266 12.995C15.4293 12.9932 15.2703 12.8316 15.2725 12.6342L15.6317 11.9938L15.9874 12.6409Z" fill="white"/>
<path id="Vector_6" d="M12.5066 18.3376C12.4869 18.3373 12.5041 18.3372 12.5446 18.3372C12.5847 18.3372 12.4975 18.5814 12.3505 18.8797L12.3025 18.9768C12.1557 19.2751 11.817 19.5193 11.5501 19.5193H11.0643H10.579C10.3121 19.5193 9.97336 19.275 9.82631 18.9768L9.77836 18.8797C9.63131 18.5814 9.54452 18.3372 9.58524 18.3372C9.62622 18.3372 9.9317 18.3372 10.2643 18.3374L11.9381 18.3377C12.2704 18.3377 12.5265 18.3376 12.5066 18.3376H12.5066Z" fill="white"/>
<path id="Vector_7" d="M10.8444 18.0755C10.4591 18.0532 10.2388 17.929 10.0416 17.5552C9.84449 17.181 9.86819 17.0372 10.0671 16.5996L10.0793 16.6011C10.5435 16.6841 10.6743 16.7483 10.8692 17.1196C11.067 17.4932 11.0444 17.7456 10.8443 18.0752" fill="white"/>
<path id="Vector_8" d="M11.2962 17.0099C11.1245 17.0002 11.0264 16.9447 10.9386 16.7783C10.8509 16.6119 10.8613 16.5476 10.9501 16.3529L10.9552 16.3533C11.162 16.3904 11.2204 16.4192 11.3068 16.5843C11.3947 16.7505 11.3846 16.8632 11.2956 17.01" fill="white"/>
<path id="Vector_9" d="M11.5176 18.0756C11.3423 17.8603 11.3013 17.6826 11.4043 17.3962C11.5079 17.1098 11.5957 17.0529 11.9246 16.946L11.9293 16.9535C12.1109 17.2403 12.1397 17.341 12.0379 17.6246C11.9351 17.911 11.7896 18.021 11.5176 18.0748" fill="white"/>
</g>
</g>
</svg>
